<svg width="105" height="105" viewBox="0 0 105 105" fill="none" xmlns="http://www.w3.org/2000/svg">
<circle cx="30" cy="50" r="22" fill="#C9EBEC"/>
<g clip-path="url(#clip0)">
<path d="M75.6203 47.6113L70.6007 30.6021C69.7424 27.7164 67.8092 25.2637 65.2101 23.7505L67.885 17.0956C68.2279 16.2424 67.8104 15.2637 66.9572 14.9208C66.104 14.5778 65.1254 14.9953 64.7824 15.8485L62.1076 22.5034C59.1904 21.7814 56.0975 22.214 53.4902 23.7247L38.058 32.5315C36.7186 33.3085 35.661 34.5052 35.0811 35.9478L19.4995 74.714C18.1058 78.226 19.8191 82.2121 23.3312 83.6058C23.3467 83.612 23.3467 83.612 23.3623 83.6182L50.8662 94.6732C54.3596 96.1133 58.3642 94.4435 59.8044 90.9502C59.8106 90.9346 59.8106 90.9346 59.8169 90.9191L75.3985 52.153C75.9784 50.7103 76.0432 49.1147 75.6203 47.6113ZM57.5795 38.2518C60.0771 39.2557 61.2831 42.0829 60.2793 44.5804C59.2754 47.078 56.4482 48.284 53.9507 47.2802C51.4531 46.2763 50.2471 43.4491 51.2509 40.9516C52.2485 38.4695 55.082 37.2479 57.5795 38.2518ZM56.7298 89.6783C56.0003 91.4933 53.9437 92.3064 52.1287 91.5769L24.6093 80.5157C22.7943 79.7862 21.8725 77.776 22.602 75.961L38.1837 37.1949C38.483 36.4503 39.0242 35.8209 39.7203 35.434L55.137 26.6209C56.8648 25.6397 58.8834 25.2798 60.8418 25.6525L57.213 34.6809C52.7437 33.8755 48.4854 36.8488 47.68 41.3181C46.8746 45.7874 49.848 50.0457 54.3173 50.8511C58.7866 51.6564 63.0449 48.6831 63.8502 44.2138C64.4206 41.0015 63.0445 37.7456 60.3155 35.9279L63.9443 26.8995C64.5305 27.2793 65.0637 27.7459 65.5409 28.262C66.39 29.1979 67.0215 30.3167 67.3765 31.5405L72.4272 48.5622C72.6556 49.3387 72.6108 50.1676 72.3115 50.9122L56.7298 89.6783Z" fill="#F7C988"/>
<path d="M49.1662 73.4844C49.3503 71.0538 47.9415 68.7758 45.6767 67.8655C44.5287 67.4041 43.9721 66.0992 44.4335 64.9513C44.8949 63.8033 46.1998 63.2467 47.3477 63.7081C48.4956 64.1695 49.0523 65.4743 48.5909 66.6223C48.248 67.4755 48.6655 68.4541 49.5186 68.7971C50.3718 69.14 51.3505 68.7225 51.6934 67.8693C52.6038 65.6045 51.9344 63.011 50.0525 61.4617L50.3268 60.7792C50.6698 59.926 50.2523 58.9473 49.3991 58.6044C48.5459 58.2615 47.5672 58.679 47.2243 59.5322L46.9499 60.2147C43.8768 59.9705 41.1843 62.2759 40.9401 65.349C40.756 67.7796 42.1648 70.0577 44.4297 70.968C45.5776 71.4294 46.1342 72.7343 45.6728 73.8822C45.2114 75.0301 43.9066 75.5868 42.7586 75.1254C41.6107 74.664 41.054 73.3591 41.5154 72.2112C41.8584 71.358 41.4409 70.3793 40.5877 70.0364C39.7345 69.6935 38.7558 70.1109 38.4129 70.9641C37.5026 73.229 38.1719 75.8225 40.0539 77.3717L39.7421 78.1473C39.3992 79.0005 39.8167 79.9792 40.6699 80.3221C41.523 80.6651 42.5017 80.2476 42.8446 79.3944L43.1564 78.6187C46.2296 78.8629 48.922 76.5576 49.1662 73.4844Z" fill="#F7C988"/>
</g>
<defs>
<clipPath id="clip0">
<rect width="80" height="80" fill="white" transform="translate(29.8353) rotate(21.8972)"/>
</clipPath>
</defs>
</svg>
