<svg width="79" height="70" viewBox="0 0 79 70" fill="none" xmlns="http://www.w3.org/2000/svg">
<circle cx="22" cy="26" r="22" fill="#C9EBEC"/>
<g clip-path="url(#clip0)">
<path d="M65.1556 0.943161C65.0623 0.600516 64.8303 0.312223 64.5153 0.148112C63.8937 -0.180813 63.1231 0.0564707 62.794 0.678086C62.7931 0.679669 62.7922 0.681252 62.7915 0.682835C62.7915 0.718015 56.3397 13.2348 36.5338 15.4159C33.9502 15.6915 31.4249 16.3655 29.0477 17.414C24.7926 19.2639 21.2784 22.4835 19.0638 26.5606C16.9963 30.3904 16.1401 34.7575 16.6083 39.0844C16.9532 42.2386 18.0067 45.274 19.69 47.9636C16.1721 50.4895 5.01327 59.2209 4.00715 68.5927C3.93327 69.292 4.44055 69.9189 5.13992 69.9928C5.83945 70.0667 6.46617 69.5594 6.54005 68.86C7.46174 60.4944 17.9311 52.3821 21.1957 50.0321C25.1146 54.8447 30.9825 57.5605 37.2796 58.0037C41.5178 58.2773 45.7611 57.5545 49.6697 55.893C53.9126 54.1128 57.6599 51.3288 60.5893 47.7807C68.1387 38.6341 71.7341 23.2608 65.1556 0.943161ZM21.9274 46.7042C21.4419 45.9396 21.014 45.14 20.6469 44.312C19.8744 42.5648 19.376 40.7091 19.1694 38.81C18.7384 34.9992 19.4744 31.1473 21.2801 27.7637C23.2318 24.1765 26.3278 21.3457 30.0749 19.7218C32.2171 18.789 34.4908 18.1934 36.8152 17.9558C49.8878 16.5486 57.578 10.73 61.5462 6.5085C59.2147 14.1844 55.2006 21.2438 49.7963 27.1727L49.0224 19.377C48.983 18.6749 48.3818 18.1375 47.6796 18.1769C46.9774 18.2163 46.4401 18.8175 46.4795 19.5197C46.4814 19.5543 46.4847 19.589 46.4895 19.6233L47.4815 29.6423C41.5644 35.6439 33.3395 41.6736 21.9274 46.7042ZM58.6193 46.1484V46.1554C55.9576 49.3959 52.5482 51.941 48.6847 53.5712C45.1318 55.0726 41.2756 55.7185 37.4273 55.4568C32.0701 55.1854 27.0428 52.7868 23.4612 48.7938C27.6584 46.9366 31.7167 44.7804 35.6051 42.342L46.785 44.4527C47.4798 44.5616 48.1313 44.0865 48.2402 43.3917C48.3452 42.7216 47.9063 42.0866 47.2423 41.948L38.6516 40.3227C42.6182 37.5984 46.3106 34.4951 49.6767 31.0565C49.7385 31.0034 49.7949 30.9445 49.8456 30.8806C58.7248 21.6355 62.503 12.489 64.0791 6.86029C68.4272 25.4067 65.0993 38.3105 58.6193 46.1484Z" fill="#F7C988"/>
</g>
<defs>
<clipPath id="clip0">
<rect width="70" height="70" fill="white" transform="translate(9)"/>
</clipPath>
</defs>
</svg>
