<svg width="117" height="117" viewBox="0 0 117 117" fill="none" xmlns="http://www.w3.org/2000/svg">
<circle cx="45" cy="50" r="22" fill="#C9EBEC"/>
<path d="M86.026 44.5624C86.026 28.6851 74.443 15.7694 60.2065 15.7694C45.97 15.7694 34.387 28.6851 34.387 44.5624C34.387 58.979 43.9371 70.9532 56.3528 73.0345L53.8117 76.1908C53.4183 76.6795 53.1711 77.2695 53.0986 77.8927C53.0262 78.5158 53.1315 79.1468 53.4024 79.7127C53.6732 80.2786 54.0986 80.7564 54.6294 81.0908C55.1602 81.4253 55.7748 81.6028 56.4022 81.6029H58.5283C58.4139 82.5706 58.1679 83.5181 57.797 84.4192C56.4436 87.9376 56.4436 91.833 57.797 95.3514C58.373 96.7271 58.6503 98.2095 58.6105 99.7005C58.6105 100.125 58.7791 100.532 59.079 100.832C59.379 101.132 59.7859 101.3 60.2101 101.3C60.6344 101.3 61.0413 101.132 61.3412 100.832C61.6412 100.532 61.8098 100.125 61.8098 99.7005C61.8486 97.8282 61.5033 95.9679 60.7951 94.2344C59.7104 91.4364 59.7104 88.3341 60.7951 85.5361C61.3049 84.2805 61.6241 82.9557 61.7421 81.6057H64.0145C64.6418 81.6058 65.2565 81.4285 65.7873 81.0941C66.3182 80.7598 66.7436 80.2821 67.0145 79.7162C67.2854 79.1503 67.3907 78.5193 67.3182 77.8962C67.2457 77.273 66.9984 76.683 66.6049 76.1944L64.0602 73.0336C76.4759 70.9532 86.026 58.979 86.026 44.5624ZM64.1251 78.3352C64.1171 78.3584 64.1014 78.3783 64.0807 78.3914C64.0599 78.4045 64.0352 78.4102 64.0108 78.4074H56.4022C56.3782 78.4073 56.3548 78.4005 56.3346 78.3877C56.3144 78.3749 56.2982 78.3567 56.2879 78.3351C56.2776 78.3135 56.2736 78.2895 56.2763 78.2657C56.2791 78.242 56.2885 78.2195 56.3034 78.2008L60.1078 73.4751C60.1712 73.45 60.2418 73.45 60.3052 73.4751L64.1095 78.2017C64.1268 78.2189 64.1378 78.2415 64.1406 78.2657C64.1434 78.29 64.138 78.3144 64.1251 78.3352ZM60.2065 70.1607C47.7341 70.1607 37.5862 58.6792 37.5862 44.5669C37.5862 30.4547 47.7323 18.9732 60.2065 18.9732C72.6807 18.9732 82.8268 30.4557 82.8268 44.5669C82.8268 58.6782 72.6798 70.157 60.2065 70.157V70.1607Z" fill="#F7C988"/>
<path d="M54.0933 25.0855C51.2955 26.2504 48.8014 28.04 46.8018 30.3173C44.8022 32.5947 43.3502 35.2993 42.5569 38.2243C42.4936 38.4274 42.4714 38.6411 42.4917 38.8529C42.5119 39.0648 42.5743 39.2704 42.675 39.4578C42.7758 39.6452 42.9129 39.8107 43.0784 39.9444C43.2439 40.0782 43.4344 40.1776 43.6387 40.2368C43.8431 40.2961 44.0573 40.3139 44.2686 40.2894C44.48 40.2648 44.6843 40.1983 44.8697 40.0938C45.055 39.9893 45.2176 39.8489 45.348 39.6807C45.4784 39.5126 45.574 39.3201 45.6291 39.1145C46.2848 36.6618 47.4926 34.3913 49.1602 32.4768C50.8277 30.5623 52.9109 29.0543 55.2505 28.0681C55.645 27.9139 55.9622 27.6096 56.1326 27.2218C56.303 26.834 56.3127 26.3945 56.1595 25.9996C56.0063 25.6048 55.7027 25.2868 55.3154 25.1154C54.928 24.944 54.4885 24.9333 54.0933 25.0855Z" fill="#F7C988"/>
</svg>
